<svg width="30" height="23" viewBox="0 0 30 23" fill="none" xmlns="http://www.w3.org/2000/svg">
<path d="M6.134 8.285C5.9 8.38033 5.627 8.454 5.315 8.506C5.01167 8.54933 4.74733 8.571 4.522 8.571C4.19267 8.571 3.885 8.52333 3.599 8.428C3.32167 8.324 3.079 8.168 2.871 7.96C2.663 7.74333 2.49833 7.466 2.377 7.128C2.26433 6.78133 2.208 6.361 2.208 5.867C2.208 5.503 2.23833 5.16067 2.299 4.84C2.36833 4.51933 2.481 4.242 2.637 4.008C2.793 3.76533 2.99233 3.57467 3.235 3.436C3.48633 3.29733 3.794 3.228 4.158 3.228C4.32267 3.228 4.52633 3.24967 4.769 3.293V3.085C4.769 2.75567 4.665 2.47833 4.457 2.253C4.249 2.019 3.94567 1.902 3.547 1.902C3.261 1.902 2.988 1.96267 2.728 2.084C2.47667 2.20533 2.25567 2.41767 2.065 2.721C1.883 3.02433 1.73567 3.43167 1.623 3.943C1.519 4.44567 1.467 5.08267 1.467 5.854C1.467 6.46067 1.51033 6.998 1.597 7.466C1.69233 7.934 1.84833 8.32833 2.065 8.649C2.29033 8.961 2.585 9.19933 2.949 9.364C3.32167 9.52867 3.781 9.611 4.327 9.611C4.73433 9.611 5.055 9.58933 5.289 9.546C5.523 9.50267 5.67467 9.468 5.744 9.442L5.887 10.573C5.73967 10.6077 5.60533 10.6337 5.484 10.651C5.36267 10.677 5.24133 10.6943 5.12 10.703C4.99867 10.7203 4.873 10.7333 4.743 10.742C4.62167 10.7507 4.483 10.755 4.327 10.755C3.755 10.755 3.222 10.677 2.728 10.521C2.234 10.365 1.805 10.092 1.441 9.702C1.08567 9.32067 0.804 8.81367 0.596 8.181C0.388 7.53967 0.284 6.738 0.284 5.776C0.284 4.84 0.370667 4.05567 0.544 3.423C0.726 2.78167 0.968667 2.266 1.272 1.876C1.57533 1.47733 1.922 1.19567 2.312 1.031C2.702 0.857666 3.11367 0.771 3.547 0.771C3.90233 0.771 4.236 0.827333 4.548 0.94C4.86 1.044 5.133 1.213 5.367 1.447C5.601 1.681 5.78733 1.98867 5.926 2.37C6.06467 2.74267 6.134 3.19767 6.134 3.735V8.285ZM3.573 5.789C3.573 5.95367 3.58167 6.12267 3.599 6.296C3.625 6.46933 3.66833 6.62533 3.729 6.764C3.78967 6.90267 3.872 7.01967 3.976 7.115C4.08867 7.20167 4.23167 7.245 4.405 7.245C4.51767 7.245 4.639 7.232 4.769 7.206V4.606C4.69967 4.58867 4.63467 4.57567 4.574 4.567C4.51333 4.55833 4.45267 4.554 4.392 4.554C4.22733 4.554 4.093 4.593 3.989 4.671C3.885 4.74033 3.80267 4.83567 3.742 4.957C3.68133 5.06967 3.638 5.19967 3.612 5.347C3.586 5.49433 3.573 5.64167 3.573 5.789ZM13.947 6.569C13.947 7.05433 13.8647 7.46167 13.7 7.791C13.5353 8.11167 13.31 8.37167 13.024 8.571C12.7467 8.76167 12.413 8.90033 12.023 8.987C11.6417 9.065 11.23 9.104 10.788 9.104C10.4327 9.104 10.0643 9.08233 9.683 9.039C9.30167 9.00433 8.92467 8.948 8.552 8.87V1.057C8.85533 1.005 9.189 0.961666 9.553 0.926999C9.917 0.883666 10.2767 0.861999 10.632 0.861999C11.2387 0.861999 11.7327 0.927 12.114 1.057C12.4953 1.17833 12.7943 1.343 13.011 1.551C13.2277 1.75033 13.375 1.97567 13.453 2.227C13.531 2.47833 13.57 2.72967 13.57 2.981C13.57 3.36233 13.4747 3.70033 13.284 3.995C13.102 4.28967 12.855 4.52367 12.543 4.697C13.089 4.89633 13.4573 5.165 13.648 5.503C13.8473 5.841 13.947 6.19633 13.947 6.569ZM10.151 5.477V7.661C10.2637 7.67833 10.385 7.69133 10.515 7.7C10.6537 7.70867 10.788 7.713 10.918 7.713C11.1 7.713 11.2777 7.7 11.451 7.674C11.6243 7.63933 11.776 7.583 11.906 7.505C12.0447 7.41833 12.1573 7.30133 12.244 7.154C12.3307 6.998 12.374 6.803 12.374 6.569C12.374 6.179 12.2483 5.90167 11.997 5.737C11.7543 5.56367 11.425 5.477 11.009 5.477H10.151ZM10.775 4.151C11.1823 4.151 11.49 4.06433 11.698 3.891C11.906 3.709 12.01 3.462 12.01 3.15C12.01 2.95933 11.9797 2.80767 11.919 2.695C11.8583 2.57367 11.776 2.48267 11.672 2.422C11.568 2.35267 11.4467 2.30933 11.308 2.292C11.1693 2.266 11.0263 2.253 10.879 2.253C10.7577 2.253 10.632 2.25733 10.502 2.266C10.372 2.27467 10.255 2.28767 10.151 2.305V4.151H10.775ZM21.565 0.953V9H19.966V5.451H17.834V9H16.235V0.953H17.834V4.125H19.966V0.953H21.565ZM24.152 9V7.674H25.907V2.279H24.152V0.953H29.261V2.279H27.519V7.674H29.261V9H24.152ZM6.732 13.862C7.19133 13.862 7.60733 13.914 7.98 14.018C8.35267 14.122 8.67333 14.2823 8.942 14.499C9.21067 14.7157 9.41433 14.993 9.553 15.331C9.70033 15.6603 9.774 16.0503 9.774 16.501C9.774 16.969 9.67867 17.3937 9.488 17.775C9.29733 18.1563 8.981 18.4467 8.539 18.646C8.68633 18.8713 8.84233 19.1227 9.007 19.4C9.17167 19.6687 9.332 19.9547 9.488 20.258C9.644 20.5527 9.79133 20.8517 9.93 21.155C10.0773 21.4497 10.203 21.7313 10.307 22H8.63C8.43067 21.48 8.19667 20.9817 7.928 20.505C7.668 20.0197 7.38633 19.53 7.083 19.036H6.251V22H4.652V14.07C4.808 14.0353 4.977 14.005 5.159 13.979C5.34967 13.9443 5.54033 13.9227 5.731 13.914C5.92167 13.8967 6.10367 13.8837 6.277 13.875C6.45033 13.8663 6.602 13.862 6.732 13.862ZM8.149 16.488C8.149 16.0633 8.019 15.7513 7.759 15.552C7.499 15.3527 7.15667 15.253 6.732 15.253C6.67133 15.253 6.59767 15.2573 6.511 15.266C6.42433 15.266 6.33767 15.2747 6.251 15.292V17.71H6.602C7.148 17.71 7.54233 17.606 7.785 17.398C8.02767 17.1813 8.149 16.878 8.149 16.488ZM16.417 22L16.04 20.141H13.895L13.531 22H11.867C12.2483 20.414 12.634 18.971 13.024 17.671C13.414 16.3623 13.791 15.123 14.155 13.953H15.897C16.2783 15.1317 16.6553 16.384 17.028 17.71C17.4093 19.0273 17.7777 20.4573 18.133 22H16.417ZM14.987 15.513C14.9003 15.8163 14.818 16.1067 14.74 16.384C14.6707 16.6527 14.6013 16.9213 14.532 17.19C14.4713 17.45 14.4107 17.7143 14.35 17.983C14.298 18.2517 14.246 18.529 14.194 18.815H15.767C15.715 18.529 15.663 18.2517 15.611 17.983C15.559 17.7143 15.4983 17.45 15.429 17.19C15.3683 16.9213 15.299 16.6527 15.221 16.384C15.1517 16.1067 15.0737 15.8163 14.987 15.513ZM25.244 19.309C25.244 19.699 25.192 20.0673 25.088 20.414C24.9927 20.7607 24.828 21.064 24.594 21.324C24.3687 21.584 24.074 21.792 23.71 21.948C23.346 22.0953 22.904 22.169 22.384 22.169C21.838 22.169 21.383 22.0997 21.019 21.961C20.655 21.8223 20.3473 21.6533 20.096 21.454L20.707 20.18C20.9237 20.3187 21.162 20.453 21.422 20.583C21.6907 20.713 21.9637 20.778 22.241 20.778C22.657 20.778 22.9907 20.6697 23.242 20.453C23.502 20.2277 23.632 19.816 23.632 19.218V15.279H20.941V13.953H25.244V19.309Z" fill="white"/>
</svg>
